<svg xmlns="http://www.w3.org/2000/svg" width="1200" height="760" viewBox="0 0 1200 760" fill="none">
  <rect width="1200" height="760" fill="#F5F2EB"/>
  <rect width="218" height="760" fill="#17201D"/>
  <rect x="22" y="24" width="36" height="36" rx="11" fill="#C9F16F"/><text x="40" y="47" text-anchor="middle" fill="#283611" font-family="Arial,sans-serif" font-size="10" font-weight="800">OM</text><text x="72" y="39" fill="#F2F5F3" font-family="Arial,sans-serif" font-size="15" font-weight="700">OrderMate</text><text x="72" y="53" fill="#829089" font-family="Arial,sans-serif" font-size="8">Operations, in order.</text>
  <g font-family="Arial,sans-serif" font-size="9"><text x="54" y="184" fill="#9BA8A0">Overview</text><text x="54" y="224" fill="#9BA8A0">Orders</text><text x="54" y="264" fill="#9BA8A0">Warehouse</text><text x="54" y="304" fill="#9BA8A0">Products</text><text x="54" y="344" fill="#9BA8A0">Inventory</text><rect x="19" y="361" width="181" height="34" rx="9" fill="#29352F"/><rect x="19" y="361" width="3" height="34" rx="1.5" fill="#C9F16F"/><text x="54" y="382" fill="#FFFFFF" font-weight="700">Purchase orders</text><text x="54" y="424" fill="#9BA8A0">Suppliers</text><text x="54" y="464" fill="#9BA8A0">Reports</text></g>
  <rect x="218" width="982" height="64" fill="#F7F4ED" stroke="#E2E0D9"/><rect x="248" y="15" width="348" height="34" rx="10" fill="#FCFBF8" stroke="#DDDDD6"/><text x="278" y="36" fill="#89938D" font-family="Arial,sans-serif" font-size="9">Search suppliers, POs, SKUs…</text>
  <text x="260" y="116" fill="#728078" font-family="Arial,sans-serif" font-size="8" font-weight="700" letter-spacing="1.4">PURCHASING</text><text x="260" y="157" fill="#17211C" font-family="Arial,sans-serif" font-size="36" font-weight="750" letter-spacing="-1.5">Purchase orders</text><text x="260" y="182" fill="#7A847E" font-family="Arial,sans-serif" font-size="10">Incoming supply, exceptions and replenishment in one place.</text>
  <rect x="260" y="214" width="880" height="177" rx="18" fill="#FFFDF8" stroke="#DFDED7"/>
  <text x="282" y="245" fill="#7B857F" font-family="Arial,sans-serif" font-size="8" font-weight="700">OPEN PURCHASE ORDERS</text>
  <g font-family="Arial,sans-serif" font-size="8"><text x="282" y="280" fill="#8A948E">PO</text><text x="418" y="280" fill="#8A948E">SUPPLIER</text><text x="642" y="280" fill="#8A948E">EXPECTED</text><text x="772" y="280" fill="#8A948E">INCOMING</text><text x="914" y="280" fill="#8A948E">STATUS</text>
  <line x1="282" y1="293" x2="1118" y2="293" stroke="#E6E4DD"/>
  <text x="282" y="320" fill="#233029" font-weight="700">PO-1092</text><text x="418" y="320" fill="#455149">Meridian Components</text><text x="642" y="320" fill="#A15047" font-weight="700">24 Sep · overdue</text><text x="772" y="320" fill="#455149">480 units</text><rect x="914" y="306" width="71" height="24" rx="12" fill="#F3E2DE"/><text x="950" y="322" text-anchor="middle" fill="#8A514A" font-weight="700">Submitted</text>
  <line x1="282" y1="342" x2="1118" y2="342" stroke="#EFEDE7"/><text x="282" y="370" fill="#233029" font-weight="700">PO-1096</text><text x="418" y="370" fill="#455149">Northline Trade</text><text x="642" y="370" fill="#55635A">29 Sep</text><text x="772" y="370" fill="#455149">760 units</text><rect x="914" y="356" width="71" height="24" rx="12" fill="#E6EDF2"/><text x="950" y="372" text-anchor="middle" fill="#46647B" font-weight="700">Ordered</text></g>
  <rect x="260" y="409" width="522" height="280" rx="18" fill="#FFFDF8" stroke="#DFDED7"/>
  <text x="282" y="440" fill="#7B857F" font-family="Arial,sans-serif" font-size="8" font-weight="700">REPLENISHMENT</text><text x="282" y="474" fill="#17211C" font-family="Arial,sans-serif" font-size="22" font-weight="750">What needs buying next</text><text x="282" y="495" fill="#849087" font-family="Arial,sans-serif" font-size="8">Stock + incoming + fulfilment demand + lead time</text>
  <g font-family="Arial,sans-serif"><rect x="282" y="518" width="478" height="55" rx="11" fill="#F2F4EB"/><circle cx="305" cy="545" r="8" fill="#C9F16F"/><text x="325" y="541" fill="#26322C" font-size="9" font-weight="700">SKU-1048 · Packing tape 48mm</text><text x="325" y="557" fill="#7A867E" font-size="7">14 available · 6 day lead time</text><text x="730" y="548" text-anchor="end" fill="#516C2A" font-size="9" font-weight="700">Buy 96</text>
  <rect x="282" y="582" width="478" height="55" rx="11" fill="#F2F4EB"/><circle cx="305" cy="609" r="8" fill="#EBCB8F"/><text x="325" y="605" fill="#26322C" font-size="9" font-weight="700">SKU-2201 · Mailer box S</text><text x="325" y="621" fill="#7A867E" font-size="7">42 available · 12 day lead time</text><text x="730" y="612" text-anchor="end" fill="#516C2A" font-size="9" font-weight="700">Buy 140</text>
  <rect x="282" y="646" width="478" height="27" rx="9" fill="#17211C"/><text x="521" y="664" text-anchor="middle" fill="#FFFFFF" font-family="Arial,sans-serif" font-size="8" font-weight="700">Review replenishment suggestions</text></g>
  <rect x="798" y="409" width="342" height="280" rx="18" fill="#17211C"/>
  <text x="820" y="440" fill="#95A49B" font-family="Arial,sans-serif" font-size="8" font-weight="700">ORDERMATE ASSIST</text><text x="820" y="474" fill="#F0F4F1" font-family="Arial,sans-serif" font-size="21" font-weight="750">2 things worth reviewing</text>
  <rect x="820" y="500" width="298" height="72" rx="12" fill="#202D27" stroke="#314139"/><text x="841" y="524" fill="#C9F16F" font-family="Arial,sans-serif" font-size="8" font-weight="700">DELIVERY NOTE MATCHED</text><text x="841" y="544" fill="#E7EEE9" font-family="Arial,sans-serif" font-size="9">PO-1092 · Meridian Components</text><text x="841" y="559" fill="#8D9A92" font-family="Arial,sans-serif" font-size="7">3 line quantities differ · review before receipt</text>
  <rect x="820" y="584" width="298" height="72" rx="12" fill="#202D27" stroke="#314139"/><text x="841" y="608" fill="#C9F16F" font-family="Arial,sans-serif" font-size="8" font-weight="700">SUPPLIER MAPPING PROPOSAL</text><text x="841" y="628" fill="#E7EEE9" font-family="Arial,sans-serif" font-size="9">Supplier code NX-488 → SKU-1048</text><text x="841" y="643" fill="#8D9A92" font-family="Arial,sans-serif" font-size="7">Evidence found in reviewed document · approve explicitly</text>
</svg>